<svg xmlns="http://www.w3.org/2000/svg" version="1.1" id="Vrstva_1" width="1024" height="1024" viewBox="0 0 1024 1024"><metadata><rdf:RDF xmlns:rdf="http://www.w3.org/1999/02/22-rdf-syntax-ns#" xmlns:dc="http://purl.org/dc/elements/1.1/"><rdf:Description><dc:creator>RealFaviconGenerator</dc:creator><dc:source>https://realfavicongenerator.net</dc:source></rdf:Description></rdf:RDF></metadata><defs>
    <style>
      .st0 {
        fill: #fff;
      }

      .st0, .st1, .st2 {
        fill-rule: evenodd;
      }

      .st1 {
        fill: #e05930;
      }
    </style>
  </defs><path class="st0" d="M1024,512c0,128.5071-120.4706,268.635-203.7647,253.1056,87.5294,83.2941-153.9726,258.8944-308.2353,258.8944C289.4118,1024,0,794.7698,0,512S229.2302,0,512,0s512,229.2302,512,512Z"></path><path class="st2" d="M595.6801,7.6027l-53.0202-5.2472h-56.334l-44.1835,4.1978-46.3927,8.3955-45.2881,12.5933-51.9156,19.9393-50.811,26.2359-38.6606,25.1865-41.9743,33.582-34.2422,33.582-30.9285,36.7303-28.7193,41.9775-22.0918,39.8786-19.8826,46.1753-11.0459,33.582-12.1505,53.5213-5.5229,44.0764-1.1046,50.373,4.4184,53.5213,8.8367,46.1753,19.8826,62.9663,15.4642,35.6809,26.5101,48.2741,24.3009,35.6809,33.1376,39.8786,36.4514,36.7303,39.7652,33.582,31.9388,24.5277,37.0588,24.3529,53.8235,27.3529,46.5882,18.7059,43.3529,12.8235,8.1553-4.918,8.8367-9.4449,26.5101-38.8292,22.0918-45.1258,15.4642-48.2741,7.7321-49.3236v-51.4225l-4.4184-38.8292v-45.1258l4.4184-26.2359,5.5229-19.9393,16.5688-35.6809,9.9413-13.6427,13.2551-13.6427,18.778-13.6427,19.8826-9.4449,23.1963-6.2966,14.3596-2.0989,20.9872-1.0494,55.2294,2.0989,17.6734-2.0989,23.1963-7.3461,27.6147-15.7416,16.5688-14.6921,9.9413-11.5438,11.0459-15.7416,16.5688-31.4831,9.9413-26.2359,6.6275-25.1865,1.1046-10.4944-4.4184-14.6921-7.7321-7.3461-13.2551-6.2966-100.5175-28.3348-20.9872-11.5438-15.4642-16.791-7.7321-16.791-11.0459-31.4831-9.9413-16.791-19.8826-22.0382-13.2551-10.4944-20.9872-12.5933-26.5101-11.5438-19.8826-6.2966-28.7193-6.2966-34.2422-4.1978-62.9615,1.0494-36.4514,6.2966-32.033,9.4449-29.8239,12.5933-35.3468,20.9888-30.9285,26.2359-24.3009,28.3348-17.6734,29.3843-7.7321,19.9393-2.2092,10.4944,1.1046,26.2359,13.2551,25.1865,12.1505,13.6427,72.9028,69.2629,19.8826,15.7416,16.5688,8.3955,12.1505,3.1483h14.3596l8.8367-2.0989,11.0459-5.2472,9.9413-8.3955,13.2551-18.8899,6.6275-15.7416,8.8367-35.6809,4.4184-37.7798,1.1046-61.9168-2.2092-53.5213,2.2092-4.1978,6.6275-5.2472,7.7321-1.0494,5.5229,2.0989,5.5229,5.2472,2.2092,6.2966,2.2092,37.7798v71.3618l-4.4184,40.9281-7.7321,34.6315-7.7321,20.9888-13.2551,23.0876-22.0918,23.0876-17.6734,10.4944-17.6734,5.2472h-19.8826l-23.1963-6.2966-20.9872-12.5933-15.4642-12.5933-82.8441-77.6584-24.3009,76.609-25.4055,60.8674-17.6734,33.582-19.8826,31.4831-16.5688,22.0382-14.3596,14.6921-14.3596-39.8786-7.7321-33.582-4.4184-28.3348-2.2092-24.1371v-46.1753l3.3138-33.582,5.5229-29.3843,9.9413-37.7798,12.1505-33.582,18.778-39.8786,19.8826-32.5326,23.1963-31.4831,25.4055-28.3348,27.6147-26.2359,27.6147-22.0382,33.1376-22.0382,38.6606-20.9888,34.2422-14.6921,41.9743-13.6427,26.5101-6.2966,36.4514-6.2966,35.3468-3.1483h47.4973l25.4055,2.0989,29.8239,4.1978,41.9743,9.4449,49.7065,16.791,34.2422,15.7416,26.5101,14.6921,34.2422,23.0876,35.3468,29.3843,23.1963,23.0876,23.1963,27.2854,19.8826,28.3348,19.8826,35.6809,12.1505,27.2854,14.3596,44.0764,7.7321,41.9775,4.4184-3.1483,18.778-19.9393,11.0459-15.7416,7.7321-14.6921,6.6275-17.8404,3.3138-18.8899-14.3596-37.7798-22.0918-43.027-26.5101-39.8786-20.9872-26.2359-22.0918-24.1371-37.556-34.6315-36.4514-27.2854-38.6606-24.1371-41.9743-20.9888-36.4514-14.6921-45.2881-13.6427-50.811-10.4944ZM581.3204,298.297h6.6275l12.1505,4.1978,9.9413,9.4449,4.4184,9.4449v11.5438l-6.6275,12.5933-7.7321,6.2966-12.1505,4.1978-12.1505-1.0494-9.9413-5.2472-6.6275-7.3461-4.4184-10.4944v-8.3955l4.4184-11.5438,12.1505-10.4944,9.9413-3.1483Z"></path><path class="st1" d="M1000.5143,360.2138l-5.4891,17.8404-10.9781,22.0382-18.6628,24.1371-20.8585,19.9393-27.4453,20.9888-79.0426,47.2247-30.7388,23.0876-17.565,17.8404-15.3694,20.9888-15.3694,32.5326-6.5869,30.4337v32.5326l4.3913,26.2359,13.1738,41.9775,19.7606-2.0989,24.1519-5.2472-8.7825-25.1865,1.0978-2.0989,61.4776,18.8899,4.3913,3.1483-24.1519,10.4944-30.7388,8.3955-77.9448,12.5933-48.3038,11.5438-35.13,12.5933-24.1519,11.5438-26.3475,16.791-36.2279,32.5326-24.1519,30.4337-15.3694,25.1865-32.9344,65.0651-15.3694,25.1865-19.7606,26.2359,1.0978,1.0494,46.1082,6.2966,54.8907,2.0989,45.0104-3.1483,53.7929-9.4449,41.7169-12.5933,43.9126-19.9393,31.8366-20.9888,26.3475-25.1865,13.1738-17.8404,10.9781-19.9393,10.9781-33.582,2.1956-14.6921v-24.1371l-5.4891-26.2359-43.9126,7.3461,3.2934,22.0382v12.5933l-3.2934,20.9888-2.1956,3.1483-99.9011-39.8786-6.5869-4.1978,19.7606-8.3955,21.9563-6.2966,50.4994-10.4944,58.1841-9.4449,49.4016-15.7416,28.5432-14.6921,23.0541-16.791,20.8585-20.9888,16.4672-22.0382,16.4672-30.4337,14.2716-37.7798,10.9781-46.1753,5.4891-40.9281,1.0978-50.373-3.2934-40.9281-7.6847-45.1258-10.9781-40.9281ZM535.0412,982.5305l20.8585-39.8786,75.7492,30.4337,4.3913,3.1483-24.1519,5.2472-29.641,3.1483h-43.9126l-3.2934-2.0989ZM570.1713,916.4159l12.076-18.8899,10.9781-12.5933,125.1508,50.373,8.7825,5.2472-13.1738,8.3955-21.9563,10.4944-14.2716,4.1978-106.4879-44.0764-1.0978-3.1483ZM614.0838,861.8451l18.6628-15.7416,18.6628-11.5438,126.2486,50.373,3.2934,3.1483-13.1738,18.8899-13.1738,12.5933h-3.2934l-132.8355-53.5213-4.3913-4.1978ZM800.7122,633.0677l4.3913-1.0494,119.6617,35.6809,8.7825,4.1978-17.565,20.9888-14.2716,12.5933-102.0967-33.582-1.0978-28.3348,2.1956-10.4944ZM810.5925,603.6834l13.1738-20.9888,17.565-17.8404,121.8573,33.582,2.1956,2.0989-5.4891,19.9393-10.9781,25.1865h-4.3913l-131.7377-39.8786-2.1956-2.0989ZM975.2646,475.652l2.1956,24.1371v32.5326l-5.4891,39.8786h-4.3913l-80.1404-22.0382-17.565-6.2966,27.4453-18.8899,47.206-28.3348,28.5432-22.0382,2.1956,1.0494Z"></path></svg>